<svg xmlns="http://www.w3.org/2000/svg" viewBox="0 0 219.783 37.473"><defs><style>.cls-1{fill:#2c4a5d;}.cls-2{fill:#00c391;}.cls-3{fill:#00c492;}.cls-4{fill:#008776;}.cls-5{fill:#2d4a5d;}</style></defs><title>NuxtJS</title><g id="Layer_2" data-name="Layer 2"><g id="Layer_1-2" data-name="Layer 1"><g id="Calque_2" data-name="Calque 2"><g id="Calque_1-2" data-name="Calque 1-2"><path class="cls-1" d="M87.4718,11.091a1.6088,1.6088,0,0,1,.4468,1.167V34.6923a1.8029,1.8029,0,0,1-.4994,1.2931,1.6979,1.6979,0,0,1-1.2773.5257,2.5354,2.5354,0,0,1-.7937-.1262,1.3614,1.3614,0,0,1-.61-.389L70.2045,17.0728v17.814a1.5771,1.5771,0,0,1-1.5282,1.6243q-.048.0014-.0961,0a1.5087,1.5087,0,0,1-1.1459-.4626,1.6086,1.6086,0,0,1-.4415-1.1617V12.4051a1.7083,1.7083,0,0,1,.5256-1.272,1.6562,1.6562,0,0,1,1.2353-.4994,2.25,2.25,0,0,1,.8515.163,1.4718,1.4718,0,0,1,.6256.4625L84.7017,30.2244V12.258A1.5769,1.5769,0,0,1,86.23,10.6337c.032-.0009.0641-.0009.0961,0a1.5247,1.5247,0,0,1,1.1459.4573Zm29.8564,0a1.808,1.808,0,0,1,.4626,1.2773V26.5607a10.6231,10.6231,0,0,1-1.2931,5.2564,9.3981,9.3981,0,0,1-3.5691,3.6427,10.0712,10.0712,0,0,1-5.12,1.3351,10.2563,10.2563,0,0,1-5.1775-1.3088,9.3679,9.3679,0,0,1-3.5849-3.6427,10.6233,10.6233,0,0,1-1.2931-5.2565V12.3946a1.6977,1.6977,0,0,1,.5257-1.2773,1.845,1.845,0,0,1,1.33-.5256,1.7291,1.7291,0,0,1,1.24.5256,1.6823,1.6823,0,0,1,.5257,1.2563V26.5659a6.7653,6.7653,0,0,0,.8883,3.4587,6.3811,6.3811,0,0,0,5.5455,3.2327,6.602,6.602,0,0,0,3.2906-.8515,6.4231,6.4231,0,0,0,2.4389-2.3812,6.6751,6.6751,0,0,0,.9041-3.4587V12.3736a1.8715,1.8715,0,0,1,.4416-1.2773,1.5767,1.5767,0,0,1,1.2247-.5256,1.6029,1.6029,0,0,1,1.2195.52Zm28.453,22.76a1.7346,1.7346,0,0,1,.3311,1.0513,1.6083,1.6083,0,0,1-.5256,1.2563,1.75,1.75,0,0,1-1.2037.4783,1.6557,1.6557,0,0,1-1.44-.7359l-7.1855-9.5929-7.0226,9.5771a1.6974,1.6974,0,0,1-1.44.7727,1.53,1.53,0,0,1-1.13-.4625,1.4351,1.4351,0,0,1-.4625-1.0513,1.9864,1.9864,0,0,1,.4468-1.2195l7.58-10.3183-7.6165-10.2395a1.7186,1.7186,0,0,1-.3732-1.0513,1.6817,1.6817,0,0,1,.5256-1.2563,1.73,1.73,0,0,1,1.24-.5256,1.797,1.797,0,0,1,.7937.1892,1.63,1.63,0,0,1,.6466.5519l7.1014,9.54,7.0331-9.4458a1.7873,1.7873,0,0,1,1.4035-.8147,1.5769,1.5769,0,0,1,1.1669.5256,1.5771,1.5771,0,0,1,.5256,1.13,1.86,1.86,0,0,1-.3679,1.0512L138.091,23.533Zm26.6763-22.76a1.6137,1.6137,0,0,1,.5256,1.2406,1.5764,1.5764,0,0,1-.5256,1.2194,1.871,1.871,0,0,1-1.2773.4416h-6.581V34.74a1.6875,1.6875,0,0,1-.5257,1.2562,2.029,2.029,0,0,1-2.7018,0,1.7029,1.7029,0,0,1-.5256-1.2562V13.9926h-6.5653a1.8084,1.8084,0,0,1-1.272-.4573,1.6135,1.6135,0,0,1-.4994-1.24,1.5768,1.5768,0,0,1,.4994-1.2038,1.8084,1.8084,0,0,1,1.272-.4573H171.18A1.83,1.83,0,0,1,172.4575,11.091Z"/><path class="cls-2" d="M180.5524,35.8488A7.7793,7.7793,0,0,1,177.6666,33a1.871,1.871,0,0,1-.3364-.9987,1.5768,1.5768,0,0,1,.5572-1.2038,1.7081,1.7081,0,0,1,1.1459-.5256,2.3709,2.3709,0,0,1,1.6663.9251,4.4624,4.4624,0,0,0,3.8792,2.1446,4.73,4.73,0,0,0,3.4377-1.3666,4.5152,4.5152,0,0,0,1.4087-3.3641V12.4051a1.6608,1.6608,0,0,1,.5519-1.2562,1.829,1.829,0,0,1,1.2931-.5257,1.7559,1.7559,0,0,1,1.3141.4994,1.73,1.73,0,0,1,.4994,1.272V28.637a8.0062,8.0062,0,0,1-1.1091,4.142,8.1627,8.1627,0,0,1-3.0487,2.9909,8.59,8.59,0,0,1-4.3471,1.1144,8.0168,8.0168,0,0,1-4.0264-1.0355Zm25.42.2733a12.1841,12.1841,0,0,1-3.9581-2.4548,1.9764,1.9764,0,0,1-.7727-1.5191,1.6769,1.6769,0,0,1,.5257-1.1984,1.6452,1.6452,0,0,1,1.2195-.5257,1.5141,1.5141,0,0,1,1.0512.4048,10.2829,10.2829,0,0,0,3.0488,2.0132,9.2308,9.2308,0,0,0,3.5691.6518,6.9335,6.9335,0,0,0,3.937-1.0776,3.1537,3.1537,0,0,0,1.6085-2.6965,3.4588,3.4588,0,0,0-1.6085-2.9752A14.2927,14.2927,0,0,0,209.81,24.989a12.837,12.837,0,0,1-5.8662-2.5546,6.1414,6.1414,0,0,1-2.05-4.9148,6.54,6.54,0,0,1,1.1564-3.8529,7.3594,7.3594,0,0,1,3.1539-2.5336,11.3166,11.3166,0,0,1,4.5836-.8883,12.5309,12.5309,0,0,1,4.326.7411,9.098,9.098,0,0,1,3.29,1.9607,2.1022,2.1022,0,0,1,.8516,1.5769,1.6511,1.6511,0,0,1-.4994,1.1827,1.5769,1.5769,0,0,1-1.2037.5256,1.2145,1.2145,0,0,1-.8463-.3,7.6269,7.6269,0,0,0-2.665-1.6242,8.8439,8.8439,0,0,0-3.2274-.6413,6.7759,6.7759,0,0,0-3.9371,1.02,3.2695,3.2695,0,0,0,0,5.4509,13.7741,13.7741,0,0,0,4.3471,1.63,22.9258,22.9258,0,0,1,4.7307,1.4771,6.6653,6.6653,0,0,1,2.828,2.3654,7.1118,7.1118,0,0,1,.9935,3.958,6.34,6.34,0,0,1-1.1985,3.8057,7.9267,7.9267,0,0,1-3.2748,2.5914,11.0376,11.0376,0,0,1-4.5468.9251A13.7046,13.7046,0,0,1,205.9724,36.1221Z"/><path class="cls-3" d="M15.359,36.2062a1.8743,1.8743,0,0,1-.1-.205,2.6281,2.6281,0,0,1-.1787-1.4823H3.1536L20.8782,3.3273l5.8189,10.229,1.6873-2.9856L23.312,1.6347A3.1,3.1,0,0,0,20.8362,0,2.7562,2.7562,0,0,0,18.434,1.6558L.4781,33.2258a3.1754,3.1754,0,0,0-.1577,2.98A2.7631,2.7631,0,0,0,2.9486,37.473H17.9872A2.756,2.756,0,0,1,15.359,36.2062Z"/><path class="cls-4" d="M49.9357,33.2258,35.181,7.2328a3.1078,3.1078,0,0,0-2.4863-1.6557,2.7482,2.7482,0,0,0-2.4022,1.6505l-1.9081,3.3431,1.6978,2.9856L32.71,8.9044,47.3075,34.5189H41.7567a2.4857,2.4857,0,0,1-.1156,1.2615,1.5994,1.5994,0,0,1-.1157.2576l-.0473.0946a3.1775,3.1775,0,0,1-2.6755,1.34h8.6836a3.1718,3.1718,0,0,0,2.6755-1.34A2.7566,2.7566,0,0,0,49.9357,33.2258Z"/><path class="cls-5" d="M41.4781,36.1326l.0473-.0946a1.5994,1.5994,0,0,0,.1157-.2576,2.4857,2.4857,0,0,0,.1156-1.2615,3.8411,3.8411,0,0,0-.4836-1.2931l-11.18-19.6695-1.7083-2.9856-1.6978,2.9856-11.1752,19.67a3.9825,3.9825,0,0,0-.431,1.2931,2.6284,2.6284,0,0,0,.163,1.4823,1.8556,1.8556,0,0,0,.1.205,2.7633,2.7633,0,0,0,2.6283,1.2668H38.7869A3.1849,3.1849,0,0,0,41.4781,36.1326ZM28.3844,16.5419l10.2185,17.977H18.1712Z"/></g></g></g></g></svg>